<svg width="156" height="57" fill="none" xmlns="http://www.w3.org/2000/svg"><path d="M140.688 24.158h4.027v1.22c.89-.938 2.133-1.196 3.57-1.196v3.657h-1.218a2.34 2.34 0 00-1.46.396 2.26 2.26 0 00-.892 1.199v6.443h-4.027v-11.72zm-14.416 5.859c0-3.75 2.803-6.142 6.611-6.142s6.612 2.393 6.612 6.142c0 3.75-2.804 6.141-6.612 6.141-3.808 0-6.611-2.387-6.611-6.141zm4.071 0c0 1.527.994 2.431 2.54 2.431s2.541-.914 2.541-2.431-.995-2.431-2.541-2.431c-1.546 0-2.55.909-2.55 2.431h.01zm-44.871 0c0-3.75 2.804-6.142 6.617-6.142s6.612 2.393 6.612 6.142c0 3.75-2.804 6.141-6.612 6.141-3.808 0-6.617-2.387-6.617-6.141zm4.076 0c0 1.527.995 2.431 2.54 2.431 1.547 0 2.541-.914 2.541-2.431s-.994-2.431-2.54-2.431-2.54.909-2.54 2.431zm-17.827 0c0-3.75 2.804-6.142 6.612-6.142 3.808 0 6.612 2.393 6.612 6.142 0 3.75-2.804 6.141-6.612 6.141-3.808 0-6.612-2.387-6.612-6.141zm4.072 0c0 1.527.994 2.431 2.54 2.431s2.54-.914 2.54-2.431-.994-2.431-2.54-2.431-2.54.909-2.54 2.431zm37.001-5.859h4.032v1.128a4.982 4.982 0 011.642-1.058 5.071 5.071 0 011.932-.353c3.088 0 5.34 2.393 5.34 6.142 0 3.75-2.252 6.142-5.34 6.142a5.074 5.074 0 01-1.929-.34 4.987 4.987 0 01-1.645-1.041v4.736h-4.022l-.01-15.356zm3.878 5.835c0 .645.262 1.263.728 1.719a2.513 2.513 0 001.758.712c.659 0 1.291-.256 1.757-.712a2.405 2.405 0 00.728-1.72c0-.644-.262-1.262-.728-1.719a2.513 2.513 0 00-1.757-.712c-.66 0-1.292.257-1.758.712a2.405 2.405 0 00-.728 1.72z" fill="#fff"/><path d="M153.554 24.182H156v3.657h-2.446v2.796c0 1.099.527 1.73 1.581 1.73.119 0 .621-.043.741-.067v3.686c-.647.122-1.305.184-1.964.184-3.256 0-4.385-2.43-4.385-5.46v-2.87h-1.436v-3.656h1.436v-2.368l4.027-1.172v3.54zm-48.764 7.313h-.865v4.377h-4.001V19.45h4.026v9.093h.816l3.425-4.377h4.027v.54l-3.977 4.945v.487l4.265 5.203v.54h-4.246l-3.47-4.386zM66.496 19.45h4.027v16.427h-4.027V19.45zM29.137 57a29.603 29.603 0 01-16.188-4.803c-4.791-3.132-8.526-7.583-10.731-12.79A27.922 27.922 0 01.56 22.94c1.124-5.529 3.9-10.607 7.974-14.593 4.075-3.985 9.267-6.7 14.919-7.8A29.742 29.742 0 0140.287 2.17c5.324 2.158 9.875 5.81 13.076 10.497a28.059 28.059 0 014.91 15.834c-.007 7.556-3.08 14.8-8.542 20.144C44.27 53.987 36.862 56.992 29.137 57zm0-49.784c-4.304 0-8.51 1.248-12.089 3.587a21.393 21.393 0 00-8.014 9.552 20.852 20.852 0 00-1.238 12.297A21.144 21.144 0 0013.75 43.55a21.914 21.914 0 0011.14 5.825c4.222.821 8.597.4 12.573-1.211a21.663 21.663 0 009.765-7.84A20.954 20.954 0 0050.896 28.5c-.008-5.642-2.303-11.052-6.382-15.041-4.079-3.99-9.608-6.235-15.377-6.243z" fill="#fff"/><path d="M29.137 42.757c-2.883 0-5.701-.836-8.098-2.402a14.33 14.33 0 01-5.369-6.399 13.967 13.967 0 01-.829-8.238 14.164 14.164 0 013.99-7.3 14.68 14.68 0 017.462-3.901 14.879 14.879 0 018.422.811 14.511 14.511 0 016.541 5.251 14.037 14.037 0 012.457 7.921c-.004 3.78-1.541 7.404-4.274 10.077-2.732 2.673-6.438 4.176-10.302 4.18zm0-21.293a7.309 7.309 0 00-3.997 1.186 7.072 7.072 0 00-2.649 3.157 6.893 6.893 0 00-.41 4.066 6.99 6.99 0 001.97 3.602 7.245 7.245 0 003.683 1.926 7.342 7.342 0 004.156-.4 7.161 7.161 0 003.228-2.592A6.928 6.928 0 0036.33 28.5a6.97 6.97 0 00-2.11-4.973 7.286 7.286 0 00-5.083-2.063z" fill="url(#paint0_linear)"/><path d="M69.448 51.032h-.832L66.208 45.4h.976l1.856 4.416 1.856-4.416h.952l-2.4 5.632zM73.87 51h-.88v-5.6h2.553c.576 0 1.026.147 1.352.44.33.299.496.683.496 1.152 0 .39-.11.723-.328 1-.214.272-.51.453-.888.544L77.935 51H76.87l-1.688-2.368H73.87V51zm0-4.792v1.648h1.617c.32 0 .568-.072.744-.216.181-.144.272-.35.272-.616 0-.256-.091-.456-.272-.6-.176-.144-.424-.216-.744-.216H73.87zm7.676 2.976h-2.36v-.776h2.36v.776zm3.042 1.92c-.7 0-1.246-.133-1.64-.4v-.816c.458.315.992.472 1.6.472.272 0 .482-.04.632-.12.154-.085.232-.2.232-.344 0-.128-.08-.232-.24-.312a2.645 2.645 0 00-.376-.12l-.488-.12c-.464-.117-.8-.267-1.008-.448-.208-.187-.312-.445-.312-.776 0-.357.146-.637.44-.84.293-.208.7-.312 1.224-.312.602 0 1.085.117 1.448.352v.792c-.475-.267-.947-.4-1.416-.4-.262 0-.462.04-.6.12-.14.075-.208.179-.208.312 0 .123.082.227.248.312.02.01.146.05.376.12l.456.096c.896.197 1.344.61 1.344 1.24 0 .357-.158.645-.472.864-.315.219-.728.328-1.24.328zm3.342-1.176v-2.096h-.84v-.76h.84v-1.144h.863v1.144h1.24v.76h-1.24v1.848c0 .219.051.379.152.48.102.101.256.152.464.152.208 0 .406-.048.592-.144v.744c-.186.128-.477.192-.872.192-.373 0-.666-.101-.88-.304-.213-.203-.32-.493-.32-.872zM92.11 51h-.864v-3.928h.864v.68a1.49 1.49 0 01.6-.56 1.7 1.7 0 01.848-.224c.037 0 .064.003.08.008v.864a2.234 2.234 0 00-.24-.016c-.294 0-.558.075-.792.224-.235.15-.4.33-.496.544V51zm2.275-1.968c0-.592.187-1.083.56-1.472.379-.395.864-.592 1.456-.592.406 0 .75.107 1.032.32.555.395.832.987.832 1.776v.224h-3.008c.054.33.211.59.472.776.267.187.603.28 1.008.28.448 0 .87-.117 1.264-.352v.728c-.362.256-.845.384-1.448.384-.602 0-1.117-.192-1.544-.576-.416-.384-.624-.883-.624-1.496zm.88-.4h2.128a.981.981 0 00-.28-.648c-.18-.192-.432-.288-.752-.288-.304 0-.557.09-.76.272a.991.991 0 00-.336.664zm7.907 1.696a.485.485 0 00.232-.056v.656c-.118.085-.286.128-.504.128-.448 0-.723-.187-.824-.56-.358.405-.84.608-1.448.608-.422 0-.774-.117-1.056-.352-.278-.23-.416-.552-.416-.968 0-.416.151-.736.456-.96.298-.23.672-.344 1.12-.344.474 0 .893.101 1.256.304v-.216c0-.57-.384-.856-1.152-.856a2.31 2.31 0 00-1.24.352v-.76c.389-.224.866-.336 1.432-.336.554 0 .994.133 1.32.4.33.261.496.63.496 1.104v1.464a.43.43 0 00.088.288.31.31 0 00.24.104zm-1.184-.44v-.48a2.1 2.1 0 00-1.048-.28c-.288 0-.515.053-.68.16a.509.509 0 00-.24.448c0 .203.074.357.224.464.154.107.362.16.624.16.213 0 .421-.043.624-.128.202-.09.368-.205.496-.344zM105.361 51h-.864v-3.928h.864v.512c.299-.41.731-.616 1.296-.616.304 0 .565.064.784.192.219.128.371.299.456.512.144-.213.341-.384.592-.512.256-.128.536-.192.84-.192.437 0 .779.136 1.024.408.245.272.368.661.368 1.168V51h-.864v-2.256c0-.645-.267-.968-.8-.968-.208 0-.408.064-.6.192a1.092 1.092 0 00-.408.464V51h-.864v-2.256c0-.645-.269-.968-.808-.968-.203 0-.4.061-.592.184a1.172 1.172 0 00-.424.448V51zm7.687 0h-.864v-3.928h.864V51zm-.432-4.632a.548.548 0 01-.392-.152.55.55 0 01-.152-.392.533.533 0 01.544-.552c.149 0 .275.053.376.16.107.107.16.237.16.392a.532.532 0 01-.536.544zm2.842 2.048V51h-.864v-3.928h.864v.52a1.878 1.878 0 011.44-.624c.464 0 .821.144 1.072.432.256.288.384.688.384 1.2V51h-.864v-2.208c0-.677-.307-1.016-.92-1.016a1.23 1.23 0 00-.632.184c-.208.117-.368.27-.48.456zm7.314-.832v-.512h.864v3.576c0 .645-.216 1.139-.648 1.48-.421.341-.941.512-1.56.512-.613 0-1.125-.117-1.536-.352v-.792c.422.256.902.384 1.44.384.438 0 .787-.101 1.048-.304.262-.203.392-.507.392-.912v-.296c-.33.41-.797.616-1.4.616-.554 0-1.01-.195-1.368-.584-.357-.39-.536-.867-.536-1.432s.179-1.037.536-1.416c.358-.39.814-.584 1.368-.584.614 0 1.08.205 1.4.616zm-1.168 2.64c.251 0 .483-.061.696-.184a1.21 1.21 0 00.472-.488v-1.144a1.147 1.147 0 00-.472-.488 1.302 1.302 0 00-.696-.192c-.362 0-.664.12-.904.36s-.36.536-.36.888.12.648.36.888.542.36.904.36zm7.196.88c-.699 0-1.245-.133-1.64-.4v-.816c.459.315.992.472 1.6.472.272 0 .483-.04.632-.12.155-.085.232-.2.232-.344 0-.128-.08-.232-.24-.312a2.64 2.64 0 00-.376-.12l-.488-.12c-.464-.117-.8-.267-1.008-.448-.208-.187-.312-.445-.312-.776 0-.357.147-.637.44-.84.293-.208.701-.312 1.224-.312.603 0 1.085.117 1.448.352v.792c-.475-.267-.947-.4-1.416-.4-.261 0-.461.04-.6.12-.139.075-.208.179-.208.312 0 .123.083.227.248.312.021.01.147.05.376.12l.456.096c.896.197 1.344.61 1.344 1.24 0 .357-.157.645-.472.864-.315.219-.728.328-1.24.328zm2.654-2.072c0-.592.186-1.083.56-1.472.378-.395.864-.592 1.456-.592.405 0 .749.107 1.032.32.554.395.832.987.832 1.776v.224h-3.008c.053.33.21.59.472.776.266.187.602.28 1.008.28a2.43 2.43 0 001.264-.352v.728c-.363.256-.846.384-1.448.384-.603 0-1.118-.192-1.544-.576-.416-.384-.624-.883-.624-1.496zm.88-.4h2.128a.983.983 0 00-.28-.648c-.182-.192-.432-.288-.752-.288-.304 0-.558.09-.76.272a.986.986 0 00-.336.664zM137.416 51h-.864v-3.928h.864v.68c.133-.23.333-.416.6-.56.267-.15.549-.224.848-.224a.28.28 0 01.08.008v.864a2.234 2.234 0 00-.24-.016c-.293 0-.557.075-.792.224-.235.15-.4.33-.496.544V51zm4.917.032h-.784l-1.76-3.96h.952l1.224 2.84 1.208-2.84h.92l-1.76 3.96zm3.721-.032h-.864v-3.928h.864V51zm-.432-4.632a.548.548 0 01-.392-.152.55.55 0 01-.152-.392.533.533 0 01.544-.552c.149 0 .275.053.376.16.107.107.16.237.16.392a.532.532 0 01-.536.544zm3.818 4.736c-.592 0-1.093-.195-1.504-.584-.411-.395-.616-.893-.616-1.496s.205-1.096.616-1.48c.416-.384.92-.576 1.512-.576.448 0 .843.09 1.184.272v.744a2.434 2.434 0 00-1.056-.256c-.395 0-.725.123-.992.368-.267.25-.4.563-.4.936 0 .379.133.693.4.944.267.245.597.368.992.368a2.12 2.12 0 001.12-.296v.736c-.373.213-.792.32-1.256.32zm2.198-2.072c0-.592.187-1.083.56-1.472.379-.395.864-.592 1.456-.592.406 0 .75.107 1.032.32.555.395.832.987.832 1.776v.224h-3.008c.054.33.211.59.472.776.267.187.603.28 1.008.28.448 0 .87-.117 1.264-.352v.728c-.362.256-.845.384-1.448.384-.602 0-1.117-.192-1.544-.576-.416-.384-.624-.883-.624-1.496zm.88-.4h2.128a.978.978 0 00-.28-.648c-.181-.192-.432-.288-.752-.288-.304 0-.557.09-.76.272a.994.994 0 00-.336.664z" fill="#fff"/><defs><linearGradient id="paint0_linear" x1="19.726" y1="28.5" x2="38.329" y2="28.5" gradientUnits="userSpaceOnUse"><stop stop-color="#8000FF"/><stop offset="1" stop-color="#005EFF"/></linearGradient></defs></svg>